<?xml version="1.0" encoding="utf-8"?>
<!-- Generator: Adobe Illustrator 18.1.1, SVG Export Plug-In . SVG Version: 6.00 Build 0)  -->
<svg version="1.1" xmlns="http://www.w3.org/2000/svg" xmlns:xlink="http://www.w3.org/1999/xlink" x="0px" y="0px"
	 viewBox="0 0 165.5 36.7" enable-background="new 0 0 165.5 36.7" xml:space="preserve">
<g id="Layer_1">
	<g>
		<g>
			<path fill="#010101" d="M36.5,34c-2,0-3.6-0.5-4.9-1.7l1.2-1.2c0.9,1,2.2,1.4,3.7,1.4c2,0,3.2-0.7,3.2-2.1c0-1-0.6-1.6-2-1.8
				l-2-0.2c-2.3-0.2-3.6-1.2-3.6-3.2c0-2.2,1.8-3.5,4.4-3.5c1.7,0,3.2,0.4,4.3,1.3l-1.1,1.1c-0.9-0.7-1.9-0.9-3.2-0.9
				c-1.8,0-2.7,0.8-2.7,2c0,1,0.6,1.6,2.1,1.8l1.9,0.2c2.1,0.2,3.5,1,3.5,3.2C41.4,32.6,39.4,34,36.5,34z"/>
			<path fill="#010101" d="M46.7,33.8c-2,0-3.1-1.4-3.1-3.2v-7.3h-1.5v-1.3h1.5v-3.7h1.8v3.7H48v1.3h-2.6v7.3c0,1.1,0.5,1.8,1.6,1.8
				H48v1.5H46.7z"/>
			<path fill="#010101" d="M57,33.8v-1.1c-1,1-1.8,1.3-3.5,1.3c-1.7,0-2.6-0.3-3.4-1.1c-0.6-0.6-0.9-1.5-0.9-2.4
				c0-2.1,1.5-3.5,4.1-3.5H57v-1.1c0-1.8-0.9-2.6-3.1-2.6c-1.5,0-2.3,0.4-3,1.4l-1.2-1.1c1.1-1.4,2.3-1.8,4.2-1.8
				c3.2,0,4.8,1.4,4.8,4v8.1H57z M57,28.3h-3.4c-1.8,0-2.7,0.7-2.7,2.1c0,1.4,0.9,2,2.8,2c1,0,1.9-0.1,2.7-0.8
				c0.4-0.4,0.6-1.1,0.6-2.1V28.3z"/>
			<path fill="#010101" d="M65.6,34c-3,0-5.3-2-5.3-6.1c0-4.1,2.3-6.1,5.3-6.1c1.7,0,2.7,0.4,3.9,1.8l-1.2,1.1
				c-0.9-1-1.6-1.3-2.8-1.3c-1.2,0-2.1,0.5-2.8,1.4c-0.6,0.8-0.8,1.7-0.8,3.2c0,1.5,0.2,2.4,0.8,3.2c0.6,0.9,1.6,1.4,2.8,1.4
				c1.1,0,1.8-0.4,2.8-1.4l1.2,1.1C68.3,33.5,67.3,34,65.6,34z"/>
			<path fill="#010101" d="M79.2,33.8l-3.8-6.1L73,30.4v3.5h-1.8V16.5H73v11.6l5.4-6.2h2.2l-4.1,4.6l4.8,7.4H79.2z"/>
			<path fill="#010101" d="M90.7,32.5C90,33.3,88.8,34,87,34c-1.8,0-3-0.7-3.7-1.5c-1.1-1.1-1.4-2.5-1.4-4.7c0-2.2,0.3-3.5,1.4-4.7
				c0.7-0.8,1.9-1.5,3.7-1.5c1.8,0,3,0.7,3.7,1.5c1.1,1.1,1.4,2.5,1.4,4.7C92.1,30,91.8,31.4,90.7,32.5z M88.4,24.9
				c-0.3-0.3-0.8-0.5-1.4-0.5c-0.6,0-1,0.2-1.4,0.5c-0.6,0.6-0.7,1.7-0.7,2.9c0,1.2,0.1,2.3,0.7,2.9c0.3,0.3,0.8,0.5,1.4,0.5
				c0.6,0,1.1-0.2,1.4-0.5c0.6-0.6,0.7-1.7,0.7-2.9C89.1,26.6,89,25.5,88.4,24.9z"/>
			<path fill="#010101" d="M98.8,33.8h-2.4l-4.4-12h3.2l2.4,7.4l2.4-7.4h3.2L98.8,33.8z"/>
			<path fill="#010101" d="M106.1,28.8c0,1.5,0.9,2.7,2.6,2.7c1.3,0,2-0.4,2.7-1.1l1.8,1.8c-1.2,1.2-2.4,1.9-4.6,1.9
				c-2.8,0-5.6-1.3-5.6-6.2c0-3.9,2.1-6.1,5.2-6.1c3.3,0,5.2,2.4,5.2,5.7v1.3H106.1z M110.4,25.4c-0.3-0.7-1-1.2-2-1.2
				c-1,0-1.7,0.5-2,1.2c-0.2,0.4-0.3,0.8-0.3,1.3h4.6C110.6,26.2,110.5,25.9,110.4,25.4z"/>
			<path fill="#010101" d="M121.6,25.1c-0.5-0.5-0.9-0.7-1.6-0.7c-0.9,0-1.9,0.7-1.9,2.2v7.2h-3v-12h2.9V23c0.6-0.7,1.7-1.3,3-1.3
				c1.2,0,2,0.3,2.8,1.1L121.6,25.1z"/>
			<path fill="#010101" d="M128.9,24.1v9.7h-3v-9.7h-1.2v-2.3h1.2v-1.5c0-1.7,1.1-3.4,3.5-3.4h1.7v2.5H130c-0.7,0-1.1,0.4-1.1,1.1
				v1.3h2.2v2.3H128.9z M136.1,33.8c-2.5,0-3.5-1.7-3.5-3.4V16.9h3v13.3c0,0.7,0.3,1.1,1.1,1.1h1.2v2.5H136.1z"/>
			<path fill="#010101" d="M147,32.5c-0.7,0.8-2,1.5-3.7,1.5c-1.8,0-3-0.7-3.7-1.5c-1.1-1.1-1.4-2.5-1.4-4.7c0-2.2,0.3-3.5,1.4-4.7
				c0.7-0.8,1.9-1.5,3.7-1.5c1.8,0,3,0.7,3.7,1.5c1.1,1.1,1.4,2.5,1.4,4.7C148.4,30,148.1,31.4,147,32.5z M144.7,24.9
				c-0.3-0.3-0.8-0.5-1.4-0.5s-1,0.2-1.4,0.5c-0.6,0.6-0.7,1.7-0.7,2.9c0,1.2,0.1,2.3,0.7,2.9c0.3,0.3,0.8,0.5,1.4,0.5
				s1.1-0.2,1.4-0.5c0.6-0.6,0.7-1.7,0.7-2.9C145.4,26.6,145.3,25.5,144.7,24.9z"/>
			<path fill="#010101" d="M161.8,33.8h-2.5l-2.5-7.5l-2.5,7.5h-2.5l-3.7-12h3.2l1.9,7.4l2.4-7.4h2.2l2.5,7.4l1.9-7.4h3.2
				L161.8,33.8z"/>
		</g>
		<g>
			
				<rect x="6.6" y="18.9" transform="matrix(0.9718 0.2357 -0.2357 0.9718 5.1896 -2.6742)" fill="#BC9252" width="14.4" height="2.9"/>
			
				<rect x="8.4" y="14.1" transform="matrix(0.8905 0.455 -0.455 0.8905 8.7842 -5.4081)" fill="#CF8829" width="14.4" height="2.9"/>
			
				<rect x="11.7" y="9.4" transform="matrix(0.7531 0.6579 -0.6579 0.7531 11.7682 -9.7651)" fill="#F28721" width="14.4" height="2.9"/>
			
				<rect x="16.3" y="5.3" transform="matrix(0.5616 0.8274 -0.8274 0.5616 15.9277 -16.4814)" fill="#F07B22" width="14.4" height="2.9"/>
			
				<rect x="5.9" y="23.7" transform="matrix(0.9985 5.452314e-02 -5.452314e-02 0.9985 1.3909 -0.6769)" fill="#A48770" width="14.4" height="2.9"/>
			<polygon fill="#818182" points="23.2,33.8 23.2,21.8 26.1,21.8 26.1,36.7 0,36.7 0,21.8 2.9,21.8 2.9,33.8 			"/>
			<rect x="5.8" y="28" fill="#818182" width="14.5" height="2.9"/>
		</g>
	</g>
</g>
<g id="Layer_2">
</g>
</svg>
